<?xml version="1.0" encoding="utf-8"?>
<!-- Generator: Adobe Illustrator 28.2.0, SVG Export Plug-In . SVG Version: 6.00 Build 0)  -->
<svg version="1.1" id="Layer_1" xmlns="http://www.w3.org/2000/svg" xmlns:xlink="http://www.w3.org/1999/xlink" x="0px" y="0px"
	 viewBox="0 0 32 32" style="enable-background:new 0 0 32 32;" xml:space="preserve">
<style type="text/css">
	.st0{fill:#FFFFFF;}
</style>
<rect x="-46.1" y="-77.1" width="32" height="32"/>
<g>
	<path class="st0" d="M-35-52.4c0-1.8,1.2-3.5,2.9-4.1c0.4-0.1,0.5-0.3,0.6-0.7c1-3.9,2.1-7.9,3.2-11.8c0.5-1.8,1.4-3.6,2.6-5.1
		c0.6-0.8,1.4-1.4,2.4-1.6c0.9-0.2,1.1,0.1,0.9,0.9c-1.7,6.2-3.3,12.5-5,18.7c-0.1,0.3,0,0.5,0.2,0.8c1.2,1.4,1.4,3.4,0.5,5
		c-0.9,1.6-2.7,2.5-4.4,2.3c-2-0.3-3.4-1.7-3.8-3.5C-34.9-51.7-34.9-52-35-52.4z M-28.1-52.3c0-1.3-1-2.4-2.3-2.4
		c-1.3,0-2.4,1-2.4,2.3c0,1.3,1.1,2.4,2.4,2.4C-29.2-49.9-28.1-51-28.1-52.3z M-27.9-65c0,0.5,0.4,0.9,0.9,0.8
		c0.5,0,0.9-0.4,0.9-0.8c0-0.4-0.4-0.9-0.9-0.9C-27.5-65.9-27.9-65.4-27.9-65z"/>
	<path class="st0" d="M-30-66c-0.4,1.6-0.8,3-1.2,4.5c0,0.1-0.3,0.3-0.4,0.3c-1,0.3-2.1,0.6-3.1,0.8c-0.3,0.1-0.4,0.2-0.5,0.5
		c-0.8,2.1-2.9,3.3-4.9,3c-2.3-0.4-3.9-2.3-3.8-4.6c0.1-1.8,1-3.1,2.6-3.8c1.7-0.7,3.2-0.5,4.7,0.6c0.3,0.2,0.5,0.3,0.9,0.2
		c1.8-0.5,3.6-1,5.4-1.4C-30.2-66-30.1-66-30-66z M-39.4-63.6c-1.3,0-2.4,1-2.4,2.3c0,1.3,1.1,2.4,2.4,2.4c1.3,0,2.3-1,2.4-2.4
		C-37-62.5-38.1-63.6-39.4-63.6z"/>
	<path class="st0" d="M-24.5-63c0.4-1.6,0.8-3,1.2-4.5c0-0.1,0.2-0.3,0.4-0.4c2-0.6,4-1.1,6-1.6c0.6-0.2,0.9,0,0.8,0.7
		c-0.1,1.2-0.8,2-1.7,2.7c-1.8,1.5-3.8,2.3-6,2.9C-24-63.1-24.2-63.1-24.5-63z"/>
</g>
</svg>
