<?xml version="1.0" encoding="utf-8"?>
<!-- Generator: Adobe Illustrator 28.2.0, SVG Export Plug-In . SVG Version: 6.00 Build 0)  -->
<svg version="1.1" id="Layer_1" xmlns="http://www.w3.org/2000/svg" xmlns:xlink="http://www.w3.org/1999/xlink" x="0px" y="0px"
	 viewBox="0 0 32 32" style="enable-background:new 0 0 32 32;" xml:space="preserve">
<style type="text/css">
	.st0{fill:#FFFFFF;}
</style>
<rect x="0" width="32" height="32"/>
<g>
	<path class="st0" d="M11.15,24.74c0.04-1.84,1.2-3.5,2.95-4.12c0.35-0.12,0.49-0.31,0.58-0.66c1.05-3.93,2.08-7.87,3.19-11.78
		c0.53-1.85,1.39-3.56,2.65-5.05c0.65-0.77,1.42-1.38,2.44-1.6c0.86-0.19,1.11,0.07,0.88,0.92c-1.67,6.23-3.33,12.46-5.01,18.69
		c-0.09,0.32-0.03,0.53,0.18,0.78c1.21,1.4,1.4,3.41,0.5,5.02c-0.88,1.58-2.74,2.54-4.43,2.27c-1.97-0.31-3.42-1.65-3.8-3.52
		C11.22,25.38,11.19,25.06,11.15,24.74z M17.99,24.84c0.02-1.35-0.98-2.39-2.32-2.42c-1.31-0.03-2.41,1.04-2.42,2.34
		c-0.02,1.28,1.08,2.39,2.37,2.42C16.88,27.2,17.97,26.13,17.99,24.84z M18.17,12.15c0,0.51,0.35,0.86,0.87,0.85
		c0.46-0.01,0.85-0.38,0.87-0.83c0.02-0.45-0.41-0.89-0.87-0.91C18.57,11.25,18.17,11.66,18.17,12.15z"/>
	<path class="st0" d="M16.15,11.11c-0.42,1.56-0.8,3.04-1.22,4.52c-0.04,0.15-0.26,0.3-0.42,0.35c-1.03,0.3-2.07,0.57-3.11,0.84
		c-0.27,0.07-0.42,0.2-0.52,0.47c-0.76,2.09-2.85,3.35-4.88,2.96c-2.32-0.44-3.87-2.28-3.76-4.6c0.08-1.79,0.98-3.13,2.63-3.85
		c1.66-0.73,3.24-0.5,4.66,0.65c0.29,0.24,0.52,0.27,0.87,0.18c1.79-0.5,3.58-0.97,5.37-1.45C15.88,11.14,15.98,11.14,16.15,11.11z
		 M6.72,13.49c-1.32-0.01-2.41,1.05-2.42,2.35c0,1.28,1.11,2.4,2.39,2.4c1.28,0,2.34-1.05,2.37-2.35
		C9.08,14.56,8.06,13.51,6.72,13.49z"/>
	<path class="st0" d="M21.64,14.07c0.42-1.56,0.81-3.04,1.22-4.51c0.04-0.15,0.24-0.32,0.4-0.36c1.98-0.55,3.97-1.09,5.95-1.62
		c0.6-0.16,0.85,0.04,0.78,0.67c-0.13,1.16-0.8,2.01-1.66,2.73c-1.76,1.47-3.83,2.34-6.02,2.94C22.12,13.97,21.92,14,21.64,14.07z"
		/>
</g>
</svg>
